<svg width="40" height="40" viewBox="0 0 40 40" fill="none" xmlns="http://www.w3.org/2000/svg">
<path d="M8.21094 15.8281C8.8125 14.125 9.78906 12.5234 11.1641 11.1562C16.0469 6.27344 23.9609 6.27344 28.8438 11.1562L30.1797 12.5H26.25C24.8672 12.5 23.75 13.6172 23.75 15C23.75 16.3828 24.8672 17.5 26.25 17.5H36.2422C37.625 17.5 38.7422 16.3828 38.7422 15V5C38.7422 3.61719 37.625 2.5 36.2422 2.5C34.8594 2.5 33.7422 3.61719 33.7422 5V9L32.375 7.625C25.5391 0.789062 14.4609 0.789062 7.625 7.625C5.71875 9.53125 4.34375 11.7734 3.5 14.1719C3.03906 15.4766 3.72656 16.8984 5.02344 17.3594C6.32031 17.8203 7.75 17.1328 8.21094 15.8359V15.8281ZM3.04688 22.6016C2.65625 22.7187 2.28125 22.9297 1.97656 23.2422C1.66406 23.5547 1.45313 23.9297 1.34375 24.3359C1.32031 24.4297 1.29687 24.5312 1.28125 24.6328C1.25781 24.7656 1.25 24.8984 1.25 25.0312V35C1.25 36.3828 2.36719 37.5 3.75 37.5C5.13281 37.5 6.25 36.3828 6.25 35V31.0078L7.625 32.375C14.4609 39.2031 25.5391 39.2031 32.3672 32.375C34.2734 30.4688 35.6562 28.2266 36.5 25.8359C36.9609 24.5312 36.2734 23.1094 34.9766 22.6484C33.6797 22.1875 32.25 22.875 31.7891 24.1719C31.1875 25.875 30.2109 27.4766 28.8359 28.8438C23.9531 33.7266 16.0391 33.7266 11.1562 28.8438L11.1484 28.8359L9.8125 27.5H13.75C15.1328 27.5 16.25 26.3828 16.25 25C16.25 23.6172 15.1328 22.5 13.75 22.5H3.78125C3.65625 22.5 3.53125 22.5078 3.40625 22.5234C3.28125 22.5391 3.16406 22.5625 3.04688 22.6016Z" fill="white"/>
</svg>
